<?xml version="1.0" encoding="UTF-8"?>
<svg xmlns="http://www.w3.org/2000/svg" xmlns:xlink="http://www.w3.org/1999/xlink" viewBox="0 0 30 30" width="30px" height="30px">
<g id="surface27397509">
<path style=" stroke:none;fill-rule:nonzero;fill:rgb(100%,100%,100%);fill-opacity:1;" d="M 15.679688 12.796875 L 15.679688 17.574219 L 22.488281 17.574219 C 21.597656 20.46875 19.179688 22.539062 15.679688 22.539062 C 11.515625 22.539062 8.140625 19.164062 8.140625 15 C 8.140625 10.835938 11.515625 7.460938 15.679688 7.460938 C 17.554688 7.460938 19.265625 8.144531 20.582031 9.277344 L 24.101562 5.757812 C 21.878906 3.734375 18.921875 2.5 15.679688 2.5 C 8.777344 2.5 3.179688 8.097656 3.179688 15 C 3.179688 21.902344 8.777344 27.5 15.679688 27.5 C 26.175781 27.5 28.492188 17.6875 27.464844 12.816406 Z M 15.679688 12.796875 "/>
</g>
</svg>
